<svg xmlns="http://www.w3.org/2000/svg" viewBox="0 0 5248.04 604.5"><defs><style>.cls-1{fill:#668d6c;}.cls-2{fill:#85b18b;}.cls-3{fill:#678c6c;}.cls-4{fill:#060505;}.cls-5{fill:#040404;}.cls-6{fill:#83a985;}.cls-7{fill:#060706;}.cls-8{fill:#060606;}.cls-9{fill:#0b0a09;}.cls-10{fill:#648667;}.cls-11{fill:#070706;}.cls-12{fill:#fbfcfc;}.cls-13{fill:#fcfdfd;}.cls-14{fill:#e9ebeb;}.cls-15{fill:#f8f9f9;}.cls-16{fill:#fbfbfb;}.cls-17{fill:#fafbfb;}.cls-18{fill:#f9fafa;}.cls-19{fill:#c8c9c9;}.cls-20{fill:#d5e4d7;}.cls-21{fill:#f6f8f8;}.cls-22{fill:#f4f5f5;}.cls-23{fill:#f7f8f8;}.cls-24{fill:#ccd9ce;}.cls-25{fill:#141313;}.cls-26{fill:#050404;}.cls-27{fill:#2f302f;}</style></defs><g id="Layer_2" data-name="Layer 2"><g id="Layer_1-2" data-name="Layer 1"><path class="cls-1" d="M2514.69,277.84c9.52,1.21,19.09,2.1,28.54,3.69,90.2,15.22,179.95,32.71,268.5,55.8,72.15,18.82,143.37,40.54,211.48,71.36,4.54,2.05,9,4.35,13.45,6.53-1.19,1.1-2.2,2.62-3.6,3.22-34.17,14.52-68.54,28.58-102.55,43.48a1184.09,1184.09,0,0,0-117.09,59.68c-37,21.39-73,44.56-106.67,71-4.3,3.37-8,7.5-12,11.28l-1.78.63c-3.33,0-6.66-.13-10-.13H0V335c4.42-1.15,8.8-2.47,13.25-3.43,13-2.82,26.1-5.5,39.15-8.24-2.73,5.63-7.36,11.1-7.83,16.92-1.23,15.18-.77,30.5-.72,45.77,0,4.86,4,6.71,8,7.59,3.64.81,7-2.55,7.81-7.41a43.58,43.58,0,0,0,.25-7c0-10-.16-19.93.11-29.89.09-3.29,1.31-6.55,2-9.83,2.34,14.74,3.15,29.16,3.86,43.59.92,18.9,1.72,37.81,2.67,56.71.59,11.57,3.87,14.69,15.21,14.8,6.32.06,12.65.08,19,0,9.5-.13,11.82-1.81,14.13-10.6,1.59-6,2.86-12.16,4.38-18.69h53.39c1.31,5.81,2.48,11.26,3.77,16.69,2.56,10.75,4.75,12.51,15.6,12.61,5.65.05,11.34-.35,17,.08,10.08.77,15.94-1.85,16.23-15.87.24-11.29.43-22.58.78-33.87.09-3.18.65-6.34,1.1-10.39,8.26,0,15.54.1,22.81,0,22.93-.39,33.26-16.53,32.44-32.39-.79-15.23-.17-30.52-.17-45.41C297,305.92,299.21,303.17,302,295.25c3.48-10,2.37-12.23-8-16.05.87-1.25,1.56-3.38,2.66-3.61,5.16-1.09,10.44-1.67,15.68-2.43q23.57-3.41,47.12-6.83c16-2.35,32-4.89,48.08-7.05,12.78-1.72,25.62-3,38.45-4.45,17.41-1.91,34.84-3.72,52.25-5.66a36,36,0,0,0,5.57-1.52c50.62-5.33,101.21-11,151.88-15.88,35.77-3.45,71.62-6.14,107.47-8.7q83.16-5.94,166.37-11.15,48.84-3,97.77-4.5c82.21-2.48,164.41-5.31,246.64-6.55,80.91-1.21,161.85-.76,242.77-.76,26,0,51.94.72,77.91,1.41,49.93,1.32,99.86,2.57,149.77,4.39q63.38,2.31,126.7,5.89c52.18,3,104.32,6.45,156.46,9.95,23.9,1.6,47.77,3.84,71.66,5.64,3,.22,6.8,1.93,8.77-2.35,4.34,12.46,10.74,23.65,22.58,30.28,5.64,3.17,6.66,7.14,6.59,12.94-.25,22.93-.17,45.86,0,68.8a53.7,53.7,0,0,0,1.53,13.76c5.59,20.27,20.51,33.83,47.49,35.48,10.62.64,21.31-.11,32,.08,7.38.14,8.51,1.46,9.13,8.86.17,2,.07,4,.14,6,.67,21.25,1.24,42.51,2.06,63.75.46,11.74,6.6,17.65,18.22,17.76q20.48.21,41,0c9.14-.09,14-3.93,16.71-12.67.77-2.53,1.22-5.16,1.82-7.75l6.21-26.93h86c2.57,11.32,4.91,22.32,7.58,33.24,2.46,10.11,7.38,14,17.53,14.11q20,.19,40,0c12.28-.1,18-5.84,18.65-18.31,1.39-27.53,2.75-55.07,4.25-82.6.92-16.91,2.24-33.79,3.07-50.71.57-11.57,1.91-23.24-2-34.61a66.57,66.57,0,0,1-1.54-7.24c8.86,8,10.76,11.66,10.86,22.34.15,17.94-.11,35.89.16,53.84a40.65,40.65,0,0,0,2.44,13.52c1.93,5.11,7.22,7.14,12.34,5.87a15.63,15.63,0,0,0,11.9-15.18c.11-19.94.61-39.9-.26-59.81-.36-8-3.78-16-6.05-23.91C2517.42,283.13,2515.89,280.53,2514.69,277.84ZM1112.21,362.4c1.06,4.75,2.84,9.48,3.06,14.27.47,10.62.1,21.27.21,31.91,0,4.4,1.61,7.91,6.69,8.31,4.69.37,8.57-3.31,9.13-8.47a18.88,18.88,0,0,0,0-2c0-12.64.25-25.28-.07-37.9-.39-15.21-12.32-28.83-27.3-31.39a92.88,92.88,0,0,0-14.92-1.09c-31.31-.18-62.63-.22-93.94-.35-2.79,0-5.57-.4-8.35-.62,3.58-6.46,7.45-11.91,9.75-17.95,3.3-8.66-.3-13.31-9.55-13.73-4.85-.22-9.7-.34-14.67-.51-.2-3.46-.29-5.76-.48-8.06-.68-8.33-5.89-13.91-13.56-14.61-7.09-.65-13.91,4.81-15.56,12.69-.66,3.15-.87,6.39-1.29,9.59H927.62c-2.3-15.87-6.27-21.85-15.07-22a18.86,18.86,0,0,0-9.36,2.67c-7.29,4.3-6.38,12.41-7.64,19.68-2.73.2-5,.43-7.29.52s-4.67-.08-7,.06c-8.47.54-11.41,4.25-9.19,12.46,2.12,7.85,5.94,15,13,19.49,4.23,2.73,5.32,6.17,5.25,10.87-.21,13.3-.31,26.6,0,39.9.46,19.39,12.83,31.45,32.29,31.95,3.66.1,7.33-.08,11,0,3.88.1,7.75.37,11.72.57a47.32,47.32,0,0,1,1.05,5.76c.59,13.28,1,26.56,1.63,39.83.44,10.24,3.88,13.67,14.07,13.92,6.66.16,13.33.12,20,0,9-.16,11.66-2.24,14-11,1.58-6,2.92-12.1,4.42-18.38h53.21c1.39,5.95,2.73,11.69,4.09,17.43,2.22,9.34,5,11.7,14.3,11.92,6.66.15,13.33.13,20,0,9.88-.18,13-3.09,13.72-12.94,1.21-17.23,2.45-34.46,3.28-51.7.79-16.58,1.08-33.18,1.58-49.77Zm1687.84,55.9c-2.47-10.47-4.65-13.36-10-13.37-8.91,0-8.34,7.78-10.17,13.14h-6.6c-2-5.48-1.51-12.86-9.82-13.12-9-.28-8.46,7.72-10.86,13.23-2.18.16-4.16.25-6.12.45-7.21.76-8.68,3.08-6,9.75,1.08,2.65,2.53,5.15,4.36,8.84-4.35,0-7.59,0-10.83,0-15.64,0-31.27,0-46.91.17a50.32,50.32,0,0,0-9.9.8c-10.18,2.1-16.11,9.16-16.47,19.53-.22,6-.1,12-.05,17.93,0,3.9-.88,9.12,4.78,9.19s5-5,5.07-9c.06-7.22,0-14.44,0-21.66,2.64,17.15,3.66,34.3,4.4,51.47.66,15.07.53,15.07,16,15,11.14,0,11.37,0,13.85-10.67,1-4.36,3-6.25,7.42-6.14,6.65.15,13.31.07,20,0,3.34,0,5.45,1.12,6.58,4.67,3.87,12.17,4,12.13,16.68,12.1h1c11.38-.06,12-.57,12.21-11.58.14-7.23,0-14.45,0-22.61,6-.21,10.53-.23,15.06-.55,11.7-.82,18.2-7.43,18.76-19.1.19-4,.21-8,0-12-.42-8.34-.78-16.56,7.27-22.14a6.73,6.73,0,0,0,1.62-2.48c4.29-8.11,2.51-11.16-6.81-11.68Z"/><path class="cls-2" d="M503.73,247.65a36,36,0,0,1-5.57,1.52c-17.41,1.94-34.84,3.75-52.25,5.66-12.83,1.41-25.67,2.73-38.45,4.45-16.06,2.16-32.06,4.7-48.08,7.05q-23.56,3.45-47.12,6.83c-5.24.76-10.52,1.34-15.68,2.43-1.1.23-1.79,2.36-2.66,3.61H278.73c-1.45-16.46-5.27-21.74-15-22s-13.33,4.36-16.47,21.92H233.2c-2.47-17.31-5.73-21.83-15.39-21.92s-12.52,3.7-16.68,22.9c-3.94,0-8.18-.12-12.42,0-9.85.34-11.85,2.63-10.68,12.1a43.35,43.35,0,0,0,1.14,4.83c-3.64.12-7.37-.23-10.91.44-16.83,3.16-33.67,6.32-50.34,10.18-3.37.77-8.44-.44-10.17,4.59-7.86.23-15.75,1-23.58.57-12.09-.62-22.64,2.56-31.77,10.47-13,2.74-26.11,5.42-39.15,8.24C8.8,332.54,4.42,333.86,0,335V45.7c18.38,2.8,36.94,4.76,55.11,8.57,29.92,6.26,59.77,13,89.31,20.86,40.18,10.69,79.34,24.57,117.91,40.18,47.9,19.37,94.36,41.74,138.65,68.17,31.39,18.73,61.35,39.84,92,59.72C496.22,245.27,500.15,246.19,503.73,247.65Z"/><path class="cls-2" d="M5247.78,321c.07,26.26.2,52.52.21,78.79q0,95.76,0,191.51v12.29c-3.48.33-6,.7-8.59.79-3.32.12-6.66,0-10,0q-1260.35,0-2520.7,0c-4.65,0-9.3-.31-13.95-.47,4-3.78,7.68-7.91,12-11.28,33.7-26.43,69.63-49.6,106.67-71a1184.09,1184.09,0,0,1,117.09-59.68c34-14.9,68.38-29,102.55-43.48,1.4-.6,2.41-2.12,3.6-3.22,3.5-.7,7.16-1,10.47-2.16q91.8-33.76,185.84-60.63c72-20.49,144.53-38.65,217.93-53.15,59.32-11.71,118.95-21.9,178.5-32.41,23.89-4.22,47.93-7.56,71.93-11.1,3.86-.56,7.88,0,11.83,0v21c-10.61,0-19.86-.29-29.08.09-8.32.34-12,4.69-11.63,12.87a26,26,0,0,0,.94,5.89c3.92,13.87,10.9,25.87,23.5,33.42,5.2,3.11,6.26,6.78,6.21,12.16-.19,21.94.51,43.89-.22,65.8-.93,27.61,16.77,54.06,54.86,53q13-.36,26-.07c8.08.18,9.19,1.23,9.83,9.21.53,6.61.7,13.27.91,19.91.53,16.6.75,33.23,1.58,49.82.6,12.11,6.48,17.51,18.29,17.61,13.65.11,27.3.15,40.95,0,8.65-.11,13.64-4,16.2-12,.6-1.89.83-3.89,1.28-5.83,2.28-9.91,4.58-19.82,6.83-29.51h86.3c2.38,11,4.57,21.65,7,32.27,2.52,10.91,7.77,15.07,18.9,15.15,12.32.08,24.69-.64,37,.19,13.38.91,20.59-7.34,20.81-19.63.2-11.62,1.09-23.23,1.69-34.84,2-37.82,4.11-75.64,5.72-113.48.28-6.49-1.7-13.08-2.71-19.62-.29-1.91-.83-3.78-1.65-7.41,8.58,7.38,11.9,14.92,11.88,24.09q-.08,26.42,0,52.84a55.57,55.57,0,0,0,.33,8.95c1.17,7.23,5.62,11.3,11.8,11.25,6.38,0,13.79-6.64,13.83-13.09.16-21.93,0-43.87-.06-65.8a28.92,28.92,0,0,0-.88-5.89c-5.9-27.29-27.4-44.78-55.73-44.9-56.61-.24-113.22-.26-169.83-.37h-9.61l-1.64-2.47c2.16-1.39,4.71-2.43,6.43-4.24,7.92-8.37,13.75-18,15.43-29.56,1.58-10.92-2.56-15.4-13.6-15.75-8.55-.27-17.11-.44-26.62-.67.55-13.56.23-26.3-11.86-34.57,17.48-2.07,34.92-4.45,52.44-6.15,28.78-2.79,57.6-5.28,86.43-7.64,20.21-1.65,40.45-3.28,60.71-4.23,52.17-2.45,104.35-5.67,156.55-6.49,84.22-1.32,168.45-1.36,252.68-1.13,33.25.09,66.51,2,99.74,3.77q62.25,3.36,124.45,8c36.13,2.75,72.18,6.45,108.25,9.87,8.6.81,17.14,2.23,25.72,3.2,4.92.55,10,1.45,14.43-1.87,1.55,1.4,2.95,3.82,4.66,4.06,11.79,1.66,23.63,2.86,35.46,4.22,12.81,1.47,25.66,2.72,38.43,4.5,16,2.24,32,5,48,7.4,19.29,2.89,38.65,5.33,57.89,8.56,29.66,5,59.37,9.82,88.83,15.85,44.73,9.15,89.27,19.24,133.87,29C5223.31,315.19,5235.53,318.12,5247.78,321ZM4714.57,385.6c-4.73,0-8.35,0-12,0-26,.14-51.95.11-77.92.49-19,.29-30.3,11.88-30.55,30.69-.11,8.31,0,16.61,0,24.92a28.48,28.48,0,0,0,.15,5c.77,4.18,3.67,6.25,7.71,6.27,3.66,0,5.13-2.78,5.65-5.9a44.79,44.79,0,0,0,.23-7c0-8-.19-16,.13-23.92.12-3,1.46-6,2.24-9l2.06.49c0,9.23-.32,18.47.07,27.68q1.2,28.89,3.08,57.73c.55,8.33,3.1,10.53,11.2,10.83,5.65.21,11.32.18,17,0,7.76-.24,9.87-2,11.84-9.45,1.32-5,2.39-10.12,3.67-15.59,8.11,0,15.4-.05,22.69,0s14.38.24,21.52.36c1.3,6,2.21,10.89,3.44,15.71,1.74,6.78,4.06,8.67,11.23,8.93,6,.22,12,.26,18,0,7.62-.34,10-2.74,10.48-10.33.36-5.31.38-10.63.66-15.94.39-7.54.87-15.07,1.39-23.84,7.4,0,14,.25,20.52,0,15.8-.73,25.11-10.33,25.36-26.11.17-10.63.22-21.27,0-31.9-.11-4.66.81-8.07,5.06-10.89,6.07-4,9.48-10.22,10.71-17.36,1-5.56-1.14-8.09-6.85-8.5-4.24-.31-8.52-.06-12.62-.06-2.28-14.39-5.44-19.23-12.84-19.42a15,15,0,0,0-7.48,2.16c-6.26,3.67-5.49,10.68-6.39,16.65h-11.35c-2.66-14.27-5.63-18.78-12.88-18.84a15.24,15.24,0,0,0-7.48,2.24c-6.22,3.71-5.38,10.71-6.25,17.19-4.41,0-8.05-.14-11.67,0-7.6.35-10.24,3.71-7.75,11C4708.25,374.85,4711.28,379.28,4714.57,385.6Z"/><path class="cls-3" d="M5247.78,321c-12.25-2.83-24.47-5.76-36.75-8.45-44.6-9.76-89.14-19.85-133.87-29-29.46-6-59.17-10.88-88.83-15.85-19.24-3.23-38.6-5.67-57.89-8.56-16-2.41-32-5.16-48-7.4-12.77-1.78-25.62-3-38.43-4.5-11.83-1.36-23.67-2.56-35.46-4.22-1.71-.24-3.11-2.66-4.66-4.06,18.28-15.43,36-31.55,54.93-46.18a1088.19,1088.19,0,0,1,202-124.13c58.82-27.74,119.44-50.67,182.26-67.71,1.59-.43,3.24-.6,4.87-.89q0,159,.08,318C5248,319,5247.87,320,5247.78,321Z"/><path class="cls-4" d="M2514.69,277.84c1.2,2.69,2.73,5.29,3.53,8.09,2.27,7.92,5.69,15.86,6.05,23.91.87,19.91.37,39.87.26,59.81a15.63,15.63,0,0,1-11.9,15.18c-5.12,1.27-10.41-.76-12.34-5.87a40.65,40.65,0,0,1-2.44-13.52c-.27-17.95,0-35.9-.16-53.84-.1-10.68-2-14.37-10.86-22.34a66.57,66.57,0,0,0,1.54,7.24c3.87,11.37,2.53,23,2,34.61-.83,16.92-2.15,33.8-3.07,50.71-1.5,27.53-2.86,55.07-4.25,82.6-.64,12.47-6.37,18.21-18.65,18.31q-20,.16-40,0c-10.15-.09-15.07-4-17.53-14.11-2.67-10.92-5-21.92-7.58-33.24h-86l-6.21,26.93c-.6,2.59-1.05,5.22-1.82,7.75-2.67,8.74-7.57,12.58-16.71,12.67q-20.48.21-41,0c-11.62-.11-17.76-6-18.22-17.76-.82-21.24-1.39-42.5-2.06-63.75-.07-2,0-4-.14-6-.62-7.4-1.75-8.72-9.13-8.86-10.65-.19-21.34.56-32-.08-27-1.65-41.9-15.21-47.49-35.48a53.7,53.7,0,0,1-1.53-13.76c-.15-22.94-.23-45.87,0-68.8.07-5.8-1-9.77-6.59-12.94-11.84-6.63-18.24-17.82-22.58-30.28-4.42-18.11-1.38-22,17.38-22.1,6.93,0,13.85,0,21.61,0,0-5.28-.13-9.55,0-13.82.47-13.46,9.48-23,22.11-23.62,13.51-.63,23.47,7.94,24.85,21.76.45,4.57.07,9.21.07,14.57h26c.28-4.9.47-9.78.84-14.64,1-12.86,10.17-21.57,22.74-21.69,13.08-.13,22.82,8.63,23.81,21.74.35,4.61.06,9.27.06,15.31,4.42.13,8.23.29,12,.36,4.33.07,8.7.44,13,0,14.64-1.45,19,8.82,14.8,20.5a95.49,95.49,0,0,1-5,11.88c-2,3.79-4.49,7.28-7.58,12.18,5.22.9,9.86,1.77,14.51,2.5,50.95,7.93,102.3,4.35,153.5,5.42a113.57,113.57,0,0,1,13.94.67,54.79,54.79,0,0,1,32.23,16.5C2510.64,274.45,2512.72,276.09,2514.69,277.84Zm-150.42,21.6c-7.1,22-22.45,31.72-40.25,26a29.58,29.58,0,0,1-17.82-15c-5.89-11.26-3.69-22.31,2-33.38H2272.9c0,3.68,0,6.91,0,10.14,0,16.62-.13,33.23,0,49.85.13,15-5.51,27.27-17.86,35.87-4.2,2.92-5.24,6.12-5.16,10.82.39,23.93.51,47.85.79,71.78a43,43,0,0,0,.77,5.59h33.26c.89-3.4,1.68-6.25,2.37-9.12,3.4-14.19,6.4-28.49,10.25-42.56a40.65,40.65,0,0,1,37.85-30.25c17.48-.67,33.43,10.43,39.82,27.69.78,2.1,1.64,4.18,2.74,7h38.8l11,47.15h33.6c.41-3.07.94-5.65,1.08-8.25,2.39-45.12,4.57-90.26,7.17-135.37,1-16.89-8.73-27.91-19.64-38.45a8.52,8.52,0,0,0-5.39-1.83c-10.28-.17-20.55-.08-30.7-.08C2405.85,297.83,2390.23,305,2364.27,299.44ZM2136,227.57a25.41,25.41,0,0,0,14.53,11.32c7.15,2.32,9.89,7.23,9.88,14.31,0,13,0,25.92,0,38.88,0,14.95-.28,29.91.12,44.86.41,15.47,8.93,24.21,24.25,24.64s30.64.43,45.94-.09c13.55-.45,22.11-9.39,22.92-22.78.2-3.24,0-6.49,0-9.28-44.65-20.09-60.54-56.23-60.46-102.19-17.81,0-35.06,0-52.31,0C2139.69,227.25,2138.5,227.4,2136,227.57Zm103.11,66.91a9.36,9.36,0,1,0-9.14-9.76C2229.84,290,2234.08,294.57,2239.09,294.48Zm11.52-91.59c0-5.44.23-9.73-.06-14-.26-3.82-2.7-6.14-6.55-6.12-3.69,0-6.54,1.85-6.74,5.86-.23,4.79,0,9.6,0,14.26Zm-87.66-.38h12.9c0-4.84.15-9.12,0-13.4-.17-3.85-2.31-6.22-6.3-6.21s-6.34,2-6.52,6C2162.81,193.19,2163,197.5,2163,202.51Z"/><path class="cls-5" d="M3822.49,241.59c12.09,8.27,12.41,21,11.86,34.57,9.51.23,18.07.4,26.62.67,11,.35,15.18,4.83,13.6,15.75-1.68,11.53-7.51,21.19-15.43,29.56-1.72,1.81-4.27,2.85-6.43,4.24l1.64,2.47H3864c56.61.11,113.22.13,169.83.37,28.33.12,49.83,17.61,55.73,44.9a28.92,28.92,0,0,1,.88,5.89c.1,21.93.22,43.87.06,65.8,0,6.45-7.45,13-13.83,13.09-6.18.05-10.63-4-11.8-11.25a55.57,55.57,0,0,1-.33-8.95q0-26.42,0-52.84c0-9.17-3.3-16.71-11.88-24.09.82,3.63,1.36,5.5,1.65,7.41,1,6.54,3,13.13,2.71,19.62-1.61,37.84-3.76,75.66-5.72,113.48-.6,11.61-1.49,23.22-1.69,34.84-.22,12.29-7.43,20.54-20.81,19.63-12.26-.83-24.63-.11-37-.19-11.13-.08-16.38-4.24-18.9-15.15-2.46-10.62-4.65-21.3-7-32.27h-86.3c-2.25,9.69-4.55,19.6-6.83,29.51-.45,1.94-.68,3.94-1.28,5.83-2.56,8.07-7.55,11.94-16.2,12-13.65.17-27.3.13-40.95,0-11.81-.1-17.69-5.5-18.29-17.61-.83-16.59-1.05-33.22-1.58-49.82-.21-6.64-.38-13.3-.91-19.91-.64-8-1.75-9-9.83-9.21q-13-.27-26,.07c-38.09,1-55.79-25.41-54.86-53,.73-21.91,0-43.86.22-65.8.05-5.38-1-9.05-6.21-12.16-12.6-7.55-19.58-19.55-23.5-33.42a26,26,0,0,1-.94-5.89c-.34-8.18,3.31-12.53,11.63-12.87,9.22-.38,18.47-.09,29.08-.09v-21l.17-.09c.45-.7.89-1.41,1.33-2.11,5.05-8.88,12-14.44,22.88-14.36,8.34.07,14,4.44,19.08,10.15,5.29,8,3.23,17.32,4.55,26.51h25.43c0-12.14-.84-24.14,9.72-32.42C3804.65,237.36,3813.55,239.16,3822.49,241.59Zm108.39,132c-9.45,23.23-24,32-42,25.18s-23.44-24-14.88-47.66h-35c0,4,0,7.23,0,10.5,0,17-.18,33.92,0,50.88.16,14-5.42,25.32-16.53,33.45-4.63,3.39-6.2,6.79-6.12,12.31.37,22.94.29,45.88.42,68.83,0,2.53.35,5.06.56,8H3851c.65-2.2,1.26-4,1.72-5.89,3.86-15.8,7.14-31.76,11.67-47.36A40,40,0,0,1,3902.16,453c16.88-.36,32.09,10,38.66,26.46,1,2.39,1.82,4.83,3,8h39c3.86,16.41,7.54,32.06,11.1,47.16h34.11c.83-13.94,1.69-27.17,2.4-40.41,1.74-32.2,2.65-64.47,5.4-96.58,1.64-19.07-6.31-32.64-19.34-44.64a7.31,7.31,0,0,0-4.33-2c-10.93-.17-21.86-.09-32.6-.09C3973.69,371,3958.05,378.12,3930.88,373.63Zm-110.08,30c-45-20.44-61.62-56.08-60.79-102h-57.66c4.29,6.28,9.52,9.35,15.53,11.5s8.91,6.46,8.79,12.95c-.15,8.3,0,16.61,0,24.92,0,19.94-.19,39.88.09,59.81.2,13.77,8.53,23.69,21.42,24.27,16.94.75,34,.68,50.9,0,10.26-.41,17.32-6.6,19.95-16.66C3820.24,413.7,3820.23,408.66,3820.8,403.65Zm-15.34-54.1a9.17,9.17,0,0,0-9,8.81c-.23,5.37,3.85,10,8.88,10,4.47,0,8.9-4.23,9.2-8.83C3814.84,354.56,3810.35,349.62,3805.46,349.55Zm-62.91-72.68c0-5,0-9.22,0-13.41,0-4.35-2.42-6.77-6.64-6.85s-6.67,2.59-6.9,6.72c-.25,4.42-.06,8.87-.06,13.54Zm74.27-.2c0-4.62,0-8.84,0-13.06,0-4.39-2.1-6.94-6.52-7s-6.55,2.79-6.74,6.95,0,8.43,0,13.09Z"/><path class="cls-6" d="M3796.32,243.46c-10.56,8.28-9.73,20.28-9.72,32.42h-25.43c-1.32-9.19.74-18.54-4.55-26.51,7.72-1.27,15.42-2.6,23.16-3.77C3785.27,244.77,3790.8,244.16,3796.32,243.46Z"/><path class="cls-2" d="M3714.66,253.58c-.44.7-.88,1.41-1.33,2.11C3713.78,255,3714.22,254.28,3714.66,253.58Z"/><path class="cls-7" d="M1110.6,363.76c-.5,16.59-.79,33.19-1.58,49.77-.83,17.24-2.07,34.47-3.28,51.7-.69,9.85-3.84,12.76-13.72,12.94-6.66.13-13.33.15-20,0-9.35-.22-12.08-2.58-14.3-11.92-1.36-5.74-2.7-11.48-4.09-17.43h-53.21c-1.5,6.28-2.84,12.36-4.42,18.38-2.3,8.73-4.94,10.81-14,11-6.66.12-13.33.16-20,0-10.19-.25-13.63-3.68-14.07-13.92-.58-13.27-1-26.55-1.63-39.83a47.32,47.32,0,0,0-1.05-5.76c-4-.2-7.84-.47-11.72-.57-3.66-.1-7.33.08-11,0-19.46-.5-31.83-12.56-32.29-31.95-.31-13.3-.21-26.6,0-39.9.07-4.7-1-8.14-5.25-10.87-7-4.53-10.87-11.64-13-19.49-2.22-8.21.72-11.92,9.19-12.46,2.33-.14,4.67,0,7-.06s4.56-.32,7.29-.52c1.26-7.27.35-15.38,7.64-19.68a18.86,18.86,0,0,1,9.36-2.67c8.8.18,12.77,6.16,15.07,22h13.77c.42-3.2.63-6.44,1.29-9.59,1.65-7.88,8.47-13.34,15.56-12.69,7.67.7,12.88,6.28,13.56,14.61.19,2.3.28,4.6.48,8.06,5,.17,9.82.29,14.67.51,9.25.42,12.85,5.07,9.55,13.73-2.3,6-6.17,11.49-9.75,17.95,2.78.22,5.56.61,8.35.62,31.31.13,62.63.17,93.94.35a92.88,92.88,0,0,1,14.92,1.09c15,2.56,26.91,16.18,27.3,31.39.32,12.62.07,25.26.07,37.9a18.88,18.88,0,0,1,0,2c-.56,5.16-4.44,8.84-9.13,8.47-5.08-.4-6.65-3.91-6.69-8.31-.11-10.64.26-21.29-.21-31.91-.22-4.79-2-9.52-3.07-14.27l-2.3-2.14C1110.14,361.43,1110.37,362.6,1110.6,363.76Zm-78.31.57c-6.24,13.86-15.09,19.6-25.15,15.57a26.82,26.82,0,0,1-10.58-8.5c-5.2-6.78-2.4-14.37-.06-21.49H975.25c0,10.67-.45,20.9.12,31.09.71,12.89-2.46,23.7-13.32,30.25v53h20.66c.42-1.73.73-3,1-4.24,2.25-9.36,4.13-18.83,6.84-28.05,3.23-11,11.16-17.09,22.49-18.36,10.12-1.13,19.79,5,24.74,15.16,1,2,1.8,4,2.92,6.61h23.87l6.8,29H1092a38.94,38.94,0,0,0,.93-5q1.24-20.89,2.36-41.81c.75-14.27,1.77-28.54,2-42.82.28-14.92-9.66-24.89-24.21-25.17-3.3-.07-6.6,0-9.62,0C1056.49,363.41,1050.9,366.05,1032.29,364.33Zm-140.5-45.1c-.25.54-.51,1.08-.77,1.63,2,1.48,3.88,3.58,6.16,4.34,7,2.33,8.48,7.2,8.33,13.95-.35,15.62-.23,31.25-.06,46.88.12,11.12,5.42,16.35,16.61,16.62,8,.18,16,.15,24,0,13.31-.24,18.9-7.45,16.26-20.64-27.13-12.15-36.4-34.95-36.9-62.78Zm23.29-15.66c.13-2.48.3-4.37.32-6.26,0-3.22-1-6.43-4.61-6-1.66.21-3.5,3.26-4.21,5.37-.64,1.92.14,4.32.31,6.85Zm38.54,59.67c2.88-3.67,5.39-5.57,6-7.94.83-3.34-1.71-5.76-5-6.08-3.5-.34-6.07,2.1-5.81,5.33C948.92,357,951.23,359.18,953.62,363.24Zm-.45-59.35,8.27-.62c0-2.81.54-5.23-.16-7.23-.63-1.81-2.6-3.16-4-4.72-1.38,1.52-3.36,2.84-4,4.62C952.64,298,953.17,300.4,953.17,303.89Z"/><path class="cls-8" d="M52.4,323.34c9.13-7.91,19.68-11.09,31.77-10.47,7.83.4,15.72-.34,23.58-.57,3,.21,5.91.6,8.87.6q32.26.06,64.54,0h8.62c-4.12-6.12-7.37-10.95-10.61-15.79a43.35,43.35,0,0,1-1.14-4.83c-1.17-9.47.83-11.76,10.68-12.1,4.24-.14,8.48,0,12.42,0,4.16-19.2,7-23,16.68-22.9s12.92,4.61,15.39,21.92h14.07c3.14-17.56,6.63-22.15,16.47-21.92s13.54,5.5,15,22h15.19c10.41,3.82,11.52,6,8,16.05-2.75,7.92-5,10.67-17.83,21.51,0,14.89-.62,30.18.17,45.41.82,15.86-9.51,32-32.44,32.39-7.27.12-14.55,0-22.81,0-.45,4.05-1,7.21-1.1,10.39-.35,11.29-.54,22.58-.78,33.87-.29,14-6.15,16.64-16.23,15.87-5.62-.43-11.31,0-17-.08-10.85-.1-13-1.86-15.6-12.61-1.29-5.43-2.46-10.88-3.77-16.69H121.22c-1.52,6.53-2.79,12.65-4.38,18.69-2.31,8.79-4.63,10.47-14.13,10.6-6.32.09-12.65.07-19,0-11.34-.11-14.62-3.23-15.21-14.8-1-18.9-1.75-37.81-2.67-56.71-.71-14.43-1.52-28.85-3.86-43.59-.71,3.28-1.93,6.54-2,9.83-.27,10-.09,19.93-.11,29.89a43.58,43.58,0,0,1-.25,7c-.83,4.86-4.17,8.22-7.81,7.41-3.93-.88-8-2.73-8-7.59-.05-15.27-.51-30.59.72-45.77C45,334.44,49.67,329,52.4,323.34Zm59.54,3.3c-6.11,0-11.43-.19-16.73.09-2.16.12-4.76.68-6.3,2-7.27,6.35-12,13.83-11.34,24.21,1.26,19.54,1.9,39.12,2.93,58.68.51,9.54,1.33,19.06,2,28.93h21c2.47-10,4.82-19.57,7.24-29.39h23.66c.65-1.27,1.13-2.08,1.5-2.93s.59-1.91,1-2.8c5-10.21,13.07-15.62,24.7-15.08,10.79.49,18.94,6.91,22.61,17.88,1.05,3.14,1.82,6.37,2.6,9.59,1.86,7.63,3.66,15.28,5.39,22.52h21.71c0-16.41.13-32-.15-47.56a9.62,9.62,0,0,0-3.2-6.49c-8.18-6.65-11.26-15-10.83-25.42.45-11.19.1-22.42.1-34.07H178.56c4.55,15.44.93,25.81-10,29.64s-19.65-1.38-26.18-15.64C129.77,342.38,117.59,342,111.94,326.64Zm100.34,32.23c-1.1,14.69,3.64,20.08,17.53,20.21q10.49.09,21,0c14.11-.1,18.94-5,19-19.36.06-15.29.16-30.58-.06-45.86-.08-5.6,1.21-9.6,7.07-11.54,2.87-1,6.06-2.39,6.89-6.43H249C249.47,324.61,238.92,346.69,212.28,358.87ZM228.53,332c-3.53-2.91-5.36-5.59-7.57-6-3-.49-5.49,1.74-5.57,5.29s1.77,6,5.14,5.62C222.79,336.65,224.81,334.38,228.53,332Zm31.27-52.22a21.36,21.36,0,0,0,3.95,1,25.09,25.09,0,0,0,4.42-.59c0-2.91.54-5.65-.19-8-.53-1.73-2.73-3-4.19-4.41-1.33,1.59-3.24,3-3.83,4.84C259.29,274.68,259.8,277.14,259.8,279.75Zm-38,.79c-.22-5,2.39-9.63-2.77-12.26-1.06-.54-4.49.86-4.64,1.73-.56,3.36-.23,6.87-.23,10.53Z"/><path class="cls-9" d="M2800.05,418.3l4.61.3c9.32.52,11.1,3.57,6.81,11.68a6.73,6.73,0,0,1-1.62,2.48c-8,5.58-7.69,13.8-7.27,22.14.2,4,.18,8,0,12-.56,11.67-7.06,18.28-18.76,19.1-4.53.32-9.08.34-15.06.55,0,8.16.12,15.38,0,22.61-.21,11-.83,11.52-12.21,11.58h-1c-12.69,0-12.81.07-16.68-12.1-1.13-3.55-3.24-4.68-6.58-4.67-6.65,0-13.31.11-20,0-4.42-.11-6.41,1.78-7.42,6.14-2.48,10.7-2.71,10.65-13.85,10.67-15.49,0-15.36,0-16-15-.74-17.17-1.76-34.32-4.4-51.47,0,7.22,0,14.44,0,21.66,0,3.94.47,9.07-5.07,9s-4.75-5.29-4.78-9.19c0-6-.17-12,.05-17.93.36-10.37,6.29-17.43,16.47-19.53a50.32,50.32,0,0,1,9.9-.8c15.64-.12,31.27-.13,46.91-.17,3.24,0,6.48,0,10.83,0-1.83-3.69-3.28-6.19-4.36-8.84-2.7-6.67-1.23-9,6-9.75,2-.2,3.94-.29,6.12-.45,2.4-5.51,1.88-13.51,10.86-13.23,8.31.26,7.82,7.64,9.82,13.12h6.6c1.83-5.36,1.26-13.14,10.17-13.14C2795.4,404.94,2797.58,407.83,2800.05,418.3Zm-85.89,77.12c3-7.81,8-12.8,16.52-12.18,7.52.55,11.76,5.81,14.37,16.74,1,4.13,2,8.25,3.09,12.62h12.73c0-9.08.16-17.66-.11-26.22a9.13,9.13,0,0,0-2.54-5.93c-4.71-4.2-5.76-9.36-5.54-15.27.23-6.22.05-12.45.05-19.18h-12.09c1.14,7.06,2,14.29-6.73,17.23-8.17,2.75-12.08-2.83-15.54-8.91-8.43,1.52-14.6-1.39-18.11-8.48-15.44-.4-19.78,3.85-19.37,18.4.14,5,.27,10,.57,14.93.68,11.15,1.47,22.3,2.19,33.24H2696c1.43-5.7,2.7-10.77,4.07-16.26Zm67.38-67.4c.14,17.19-6.59,30-21.89,37.16,1.1,9.65,2.49,11.19,10.48,11.53,4,.17,8,.14,12,0,8.83-.27,11.18-2.53,11.38-11.38.18-8.3.08-16.62,0-24.93,0-3.4-.08-6.63,3.59-8.55,1.49-.77,2.65-2.17,4.63-3.85Zm-12.46,21.16c-1.37-1.52-2.49-3.59-3.3-3.48-1.53.2-2.88,1.68-4.3,2.62,1.14,1.27,2.08,3,3.5,3.61C2765.7,452.23,2767.29,450.44,2769.08,449.18Zm21.83-38.41c-3.73,2.19-4.14,4.64-2.2,7.43a2.66,2.66,0,0,0,2.57.43C2794.21,416.38,2793.31,414,2790.91,410.77Zm-27.53,9.16c3-4,2.46-6.39-.44-9.11C2760,414.06,2760,416.44,2763.38,419.93Z"/><path class="cls-10" d="M179.17,297.09c3.24,4.84,6.49,9.67,10.61,15.79h-8.62q-32.26,0-64.54,0c-3,0-5.91-.39-8.87-.6,1.73-5,6.8-3.82,10.17-4.59,16.67-3.86,33.51-7,50.34-10.18C171.8,296.86,175.53,297.21,179.17,297.09Z"/><path class="cls-11" d="M4714.57,385.6c-3.29-6.32-6.32-10.75-8-15.64-2.49-7.33.15-10.69,7.75-11,3.62-.17,7.26,0,11.67,0,.87-6.48,0-13.48,6.25-17.19a15.24,15.24,0,0,1,7.48-2.24c7.25.06,10.22,4.57,12.88,18.84H4764c.9-6,.13-13,6.39-16.65a15,15,0,0,1,7.48-2.16c7.4.19,10.56,5,12.84,19.42,4.1,0,8.38-.25,12.62.06,5.71.41,7.8,2.94,6.85,8.5-1.23,7.14-4.64,13.34-10.71,17.36-4.25,2.82-5.17,6.23-5.06,10.89.25,10.63.2,21.27,0,31.9-.25,15.78-9.56,25.38-25.36,26.11-6.54.3-13.12,0-20.52,0-.52,8.77-1,16.3-1.39,23.84-.28,5.31-.3,10.63-.66,15.94-.51,7.59-2.86,10-10.48,10.33-6,.26-12,.22-18,0-7.17-.26-9.49-2.15-11.23-8.93-1.23-4.82-2.14-9.71-3.44-15.71-7.14-.12-14.33-.3-21.52-.36s-14.58,0-22.69,0c-1.28,5.47-2.35,10.56-3.67,15.59-2,7.49-4.08,9.21-11.84,9.45-5.66.17-11.33.2-17,0-8.1-.3-10.65-2.5-11.2-10.83q-1.89-28.84-3.08-57.73c-.39-9.21-.07-18.45-.07-27.68l-2.06-.49c-.78,3-2.12,6-2.24,9-.32,8-.1,15.94-.13,23.92a44.79,44.79,0,0,1-.23,7c-.52,3.12-2,5.93-5.65,5.9-4,0-6.94-2.09-7.71-6.27a28.48,28.48,0,0,1-.15-5c0-8.31-.1-16.61,0-24.92.25-18.81,11.56-30.4,30.55-30.69,26-.38,51.94-.35,77.92-.49C4706.22,385.58,4709.84,385.6,4714.57,385.6Zm-8.09,11.7c3.75,13.26,1.05,21.77-8.15,24.68-3.26,1-8,1.51-10.53-.1-4.72-3-8.36-7.65-13.22-12.37-12.73,1.31-17.69-1-23.89-12.37-4.12,0-8.45-.23-12.73.1a11.18,11.18,0,0,0-6.22,2.21c-5.92,5.23-9.82,11.48-9.3,19.94,1.48,23.85,2.73,47.72,4.13,71.58,0,.51.82,1,1.26,1.46h16.23c2-8.13,4-16.06,6.08-24.43h19.3c1.63-3.07,2.81-5.83,4.45-8.29,3.94-5.88,9.42-9.15,16.67-9.3,10.24-.22,18.19,5.5,21.21,16.11,2.43,8.54,4.22,17.27,6.24,25.66h18.08c0-13.49.11-26.39-.13-39.28a8.43,8.43,0,0,0-2.68-5.84c-6.91-5.44-9.39-12.39-9.09-21,.35-9.5.08-19,.08-28.8Zm87.7-25.53h-28.89c.13,24-8.6,42.71-30.9,52.7,0,12.75,3.28,16.36,14.79,16.55q9,.14,17.93,0c11-.17,15-4,15.18-14.87.15-9.94.51-19.91-.1-29.81s.25-18.29,10.88-22.39C4793.29,373.86,4793.37,373.38,4794.18,371.77Zm-53,23.54c-1.91,2.72-4.43,4.89-4,6.06.69,2,3.1,4.55,5,4.72,2.86.26,4.82-2.51,3.93-5.44C4745.55,398.89,4743.42,397.62,4741.21,395.31Zm40.19-36.56c-.49-4.36,1.94-9.83-4-9.78-5.26,0-2.89,5.36-3.15,8.6,0,.24.33.5.79,1.18Zm-37.38-.07c-1.74-4.16-2.88-6.92-4-9.67-1.27.69-3.44,1.2-3.65,2.13-.52,2.37-.17,4.94-.17,7.54Z"/><path class="cls-12" d="M2364.27,299.44c26,5.51,41.58-1.61,49.39-22.39,10.15,0,20.42-.09,30.7.08a8.52,8.52,0,0,1,5.39,1.83c10.91,10.54,20.62,21.56,19.64,38.45-2.6,45.11-4.78,90.25-7.17,135.37-.14,2.6-.67,5.18-1.08,8.25h-33.6l-11-47.15h-38.8c-1.1-2.81-2-4.89-2.74-7-6.39-17.26-22.34-28.36-39.82-27.69a40.65,40.65,0,0,0-37.85,30.25c-3.85,14.07-6.85,28.37-10.25,42.56-.69,2.87-1.48,5.72-2.37,9.12h-33.26a43,43,0,0,1-.77-5.59c-.28-23.93-.4-47.85-.79-71.78-.08-4.7,1-7.9,5.16-10.82,12.35-8.6,18-20.83,17.86-35.87-.14-16.62,0-33.23,0-49.85,0-3.23,0-6.46,0-10.14h35.31c-5.7,11.07-7.9,22.12-2,33.38a29.58,29.58,0,0,0,17.82,15C2341.82,331.16,2357.17,321.48,2364.27,299.44Zm81.32,62.42A25.64,25.64,0,0,0,2419.76,336c-14.28.21-25.42,12-25.17,26.53a25.37,25.37,0,0,0,25.32,25.28C2434.31,387.89,2445.63,376.45,2445.59,361.86Z"/><path class="cls-13" d="M2136,227.57c2.52-.17,3.71-.32,4.89-.32,17.25,0,34.5,0,52.31,0-.08,46,15.81,82.1,60.46,102.19,0,2.79.17,6,0,9.28-.81,13.39-9.37,22.33-22.92,22.78-15.3.52-30.64.53-45.94.09s-23.84-9.17-24.25-24.64c-.4-14.95-.11-29.91-.12-44.86,0-13,0-25.92,0-38.88,0-7.08-2.73-12-9.88-14.31A25.41,25.41,0,0,1,2136,227.57Zm51.13,57.68c.07-5-4.66-9.71-9.57-9.5A9.05,9.05,0,0,0,2169,285c0,5.11,3.56,9.15,8.34,9.49S2187,290.29,2187.11,285.25Z"/><path class="cls-14" d="M2239.09,294.48c-5,.09-9.25-4.45-9.14-9.76a9.33,9.33,0,0,1,8.9-8.94,9.36,9.36,0,0,1,.24,18.7Z"/><path class="cls-14" d="M2250.61,202.89h-13.34c0-4.66-.24-9.47,0-14.26.2-4,3-5.84,6.74-5.86,3.85,0,6.29,2.3,6.55,6.12C2250.84,193.16,2250.61,197.45,2250.61,202.89Z"/><path class="cls-15" d="M2163,202.51c0-5-.14-9.32,0-13.61.18-4,2.65-6,6.52-6s6.13,2.36,6.3,6.21c.19,4.28,0,8.56,0,13.4Z"/><path class="cls-16" d="M3930.88,373.63c27.17,4.49,42.81-2.63,48.7-22.71,10.74,0,21.67-.08,32.6.09a7.31,7.31,0,0,1,4.33,2c13,12,21,25.57,19.34,44.64-2.75,32.11-3.66,64.38-5.4,96.58-.71,13.24-1.57,26.47-2.4,40.41h-34.11c-3.56-15.1-7.24-30.75-11.1-47.16h-39c-1.2-3.19-2.06-5.63-3-8-6.57-16.42-21.78-26.82-38.66-26.46a40,40,0,0,0-37.82,28.85c-4.53,15.6-7.81,31.56-11.67,47.36-.46,1.87-1.07,3.69-1.72,5.89h-33.61c-.21-2.93-.54-5.46-.56-8-.13-22.95-.05-45.89-.42-68.83-.08-5.52,1.49-8.92,6.12-12.31,11.11-8.13,16.69-19.41,16.53-33.45-.18-17,0-33.92,0-50.88,0-3.27,0-6.53,0-10.5h35c-8.56,23.62-3.13,40.87,14.88,47.66S3921.43,396.86,3930.88,373.63Zm81.37,62.1c0-14.2-12-26.11-26-25.93a25.91,25.91,0,1,0,26,25.93Z"/><path class="cls-17" d="M3820.8,403.65c-.57,5-.56,10.05-1.8,14.77-2.63,10.06-9.69,16.25-19.95,16.66-16.94.67-34,.74-50.9,0-12.89-.58-21.22-10.5-21.42-24.27-.28-19.93-.08-39.87-.09-59.81,0-8.31-.12-16.62,0-24.92.12-6.49-2.78-10.8-8.79-12.95s-11.24-5.22-15.53-11.5H3760C3759.18,347.57,3775.84,383.21,3820.8,403.65Zm-76.66-54.07a9.52,9.52,0,0,0-8.91,9c-.09,5.24,4.29,9.84,9.26,9.73a9.38,9.38,0,0,0-.35-18.75Z"/><path class="cls-14" d="M3805.46,349.55c4.89.07,9.38,5,9.06,10-.3,4.6-4.73,8.85-9.2,8.83-5,0-9.11-4.63-8.88-10A9.17,9.17,0,0,1,3805.46,349.55Z"/><path class="cls-14" d="M3742.55,276.87h-13.61c0-4.67-.19-9.12.06-13.54.23-4.13,2.59-6.81,6.9-6.72s6.6,2.5,6.64,6.85C3742.58,267.65,3742.55,271.84,3742.55,276.87Z"/><path class="cls-14" d="M3816.82,276.67h-13.29c0-4.66-.15-8.88,0-13.09s2.26-7,6.74-6.95,6.54,2.59,6.52,7C3816.81,267.83,3816.82,272.05,3816.82,276.67Z"/><path class="cls-18" d="M1032.29,364.33c18.61,1.72,24.2-.92,31.23-14.75,3,0,6.32-.06,9.62,0,14.55.28,24.49,10.25,24.21,25.17-.27,14.28-1.29,28.55-2,42.82q-1.1,20.91-2.36,41.81a38.94,38.94,0,0,1-.93,5H1071.4l-6.8-29h-23.87c-1.12-2.56-2-4.62-2.92-6.61-5-10.18-14.62-16.29-24.74-15.16-11.33,1.27-19.26,7.34-22.49,18.36-2.71,9.22-4.59,18.69-6.84,28.05-.3,1.26-.61,2.51-1,4.24H962.05v-53c10.86-6.55,14-17.36,13.32-30.25-.57-10.19-.12-20.42-.12-31.09H996.5c-2.34,7.12-5.14,14.71.06,21.49a26.82,26.82,0,0,0,10.58,8.5C1017.2,383.93,1026.05,378.19,1032.29,364.33ZM1067,386.75a15.62,15.62,0,0,0-16,15.55,15.82,15.82,0,0,0,15.12,16.49,16.22,16.22,0,0,0,16.68-16.12A16,16,0,0,0,1067,386.75Z"/><path class="cls-15" d="M891.79,319.23h33.62c.5,27.83,9.77,50.63,36.9,62.78,2.64,13.19-2.95,20.4-16.26,20.64-8,.15-16,.18-24,0-11.19-.27-16.49-5.5-16.61-16.62-.17-15.63-.29-31.26.06-46.88.15-6.75-1.32-11.62-8.33-13.95-2.28-.76-4.12-2.86-6.16-4.34C891.28,320.31,891.54,319.77,891.79,319.23Zm24.39,27.55c-2.67,3.67-5.16,5.66-5.57,8-.54,3.08,1.63,5.6,5.13,6s6.9-2.84,6-6.08C921.09,352.35,918.81,350.41,916.18,346.78Z"/><path class="cls-19" d="M915.08,303.57h-8.19c-.17-2.53-.95-4.93-.31-6.85.71-2.11,2.55-5.16,4.21-5.37,3.64-.47,4.64,2.74,4.61,6C915.38,299.2,915.21,301.09,915.08,303.57Z"/><path class="cls-20" d="M953.62,363.24c-2.39-4.06-4.7-6.29-4.88-8.69-.26-3.23,2.31-5.67,5.81-5.33,3.33.32,5.87,2.74,5,6.08C959,357.67,956.5,359.57,953.62,363.24Z"/><path class="cls-14" d="M953.17,303.89c0-3.49-.53-5.93.16-7.95.61-1.78,2.59-3.1,4-4.62,1.38,1.56,3.35,2.91,4,4.72.7,2,.16,4.42.16,7.23Z"/><path class="cls-1" d="M1110.6,363.76c-.23-1.16-.46-2.33-.7-3.5l2.3,2.14Z"/><path class="cls-17" d="M111.94,326.64c5.65,15.37,17.83,15.74,30.46,14.19,6.53,14.26,15.38,19.43,26.18,15.64s14.53-14.2,10-29.64h21.29c0,11.65.35,22.88-.1,34.07-.43,10.38,2.65,18.77,10.83,25.42a9.62,9.62,0,0,1,3.2,6.49c.28,15.57.15,31.15.15,47.56H192.22c-1.73-7.24-3.53-14.89-5.39-22.52-.78-3.22-1.55-6.45-2.6-9.59-3.67-11-11.82-17.39-22.61-17.88-11.63-.54-19.66,4.87-24.7,15.08-.44.89-.64,1.89-1,2.8s-.85,1.66-1.5,2.93H110.73c-2.42,9.82-4.77,19.35-7.24,29.39h-21c-.7-9.87-1.52-19.39-2-28.93-1-19.56-1.67-39.14-2.93-58.68-.67-10.38,4.07-17.86,11.34-24.21,1.54-1.35,4.14-1.91,6.3-2C100.51,326.45,105.83,326.64,111.94,326.64Zm-3.46,68.61a15.65,15.65,0,0,0,15.58-15.81,16,16,0,0,0-16.23-16.3,16.37,16.37,0,0,0-15.69,16A15.91,15.91,0,0,0,108.48,395.25Z"/><path class="cls-21" d="M212.28,358.87c26.64-12.18,37.19-34.26,36.72-63h34.7c-.83,4-4,5.47-6.89,6.43-5.86,1.94-7.15,5.94-7.07,11.54.22,15.28.12,30.57.06,45.86-.07,14.38-4.9,19.26-19,19.36q-10.48.07-21,0C215.92,379,211.18,373.56,212.28,358.87Zm47-19.14c2.33-4.12,4.33-6.24,4.67-8.59.52-3.56-2.39-5.36-5.54-5.19s-5.72,2.59-4.91,5.91C254.06,334.13,256.42,336,259.28,339.73Z"/><path class="cls-14" d="M228.53,332c-3.72,2.41-5.74,4.68-8,5-3.37.41-5.21-2.19-5.14-5.62s2.55-5.78,5.57-5.29C223.17,326.38,225,329.06,228.53,332Z"/><path class="cls-20" d="M259.8,279.75c0-2.61-.51-5.07.16-7.14.59-1.84,2.5-3.25,3.83-4.84,1.46,1.45,3.66,2.68,4.19,4.41.73,2.35.19,5.09.19,8a25.09,25.09,0,0,1-4.42.59A21.36,21.36,0,0,1,259.8,279.75Z"/><path class="cls-20" d="M221.79,280.54h-7.64c0-3.66-.33-7.17.23-10.53.15-.87,3.58-2.27,4.64-1.73C224.18,270.91,221.57,275.58,221.79,280.54Z"/><path class="cls-22" d="M2714.16,495.42l-14.07.73c-1.37,5.49-2.64,10.56-4.07,16.26h-12.37c-.72-10.94-1.51-22.09-2.19-33.24-.3-5-.43-9.95-.57-14.93-.41-14.55,3.93-18.8,19.37-18.4,3.51,7.09,9.68,10,18.11,8.48,3.46,6.08,7.37,11.66,15.54,8.91,8.74-2.94,7.87-10.17,6.73-17.23h12.09c0,6.73.18,13-.05,19.18-.22,5.91.83,11.07,5.54,15.27a9.13,9.13,0,0,1,2.54,5.93c.27,8.56.11,17.14.11,26.22h-12.73c-1.07-4.37-2.1-8.49-3.09-12.62-2.61-10.93-6.85-16.19-14.37-16.74C2722.14,482.62,2717.16,487.61,2714.16,495.42Zm-6-18.15c.26-4.84-4.15-9.73-9-10s-9.67,4.2-9.94,9.09,4.23,9.75,9,10S2707.9,482.15,2708.16,477.27Z"/><path class="cls-22" d="M2781.54,428h20.2c-2,1.68-3.14,3.08-4.63,3.85-3.67,1.92-3.62,5.15-3.59,8.55.06,8.31.16,16.63,0,24.93-.2,8.85-2.55,11.11-11.38,11.38-4,.12-8,.15-12,0-8-.34-9.38-1.88-10.48-11.53C2775,458,2781.68,445.21,2781.54,428Zm10,21.11c-1.54-1.6-2.51-3.47-3.67-3.59s-2.51,1.49-3.78,2.34c1,1.41,1.8,3.19,3.16,4C2787.82,452.23,2789.66,450.42,2791.58,449.13Z"/><path class="cls-19" d="M2769.08,449.18c-1.79,1.26-3.38,3.05-4.1,2.75-1.42-.59-2.36-2.34-3.5-3.61,1.42-.94,2.77-2.42,4.3-2.62C2766.59,445.59,2767.71,447.66,2769.08,449.18Z"/><path class="cls-19" d="M2790.91,410.77c2.4,3.18,3.3,5.61.37,7.86a2.66,2.66,0,0,1-2.57-.43C2786.77,415.41,2787.18,413,2790.91,410.77Z"/><path class="cls-20" d="M2763.38,419.93c-3.41-3.49-3.34-5.87-.44-9.11C2765.84,413.54,2766.34,415.91,2763.38,419.93Z"/><path class="cls-23" d="M4706.48,397.3h17.79c0,9.78.27,19.3-.08,28.8-.3,8.57,2.18,15.52,9.09,21a8.43,8.43,0,0,1,2.68,5.84c.24,12.89.13,25.79.13,39.28H4718c-2-8.39-3.81-17.12-6.24-25.66-3-10.61-11-16.33-21.21-16.11-7.25.15-12.73,3.42-16.67,9.3-1.64,2.46-2.82,5.22-4.45,8.29h-19.3c-2.09,8.37-4.06,16.3-6.08,24.43h-16.23c-.44-.48-1.23-.95-1.26-1.46-1.4-23.86-2.65-47.73-4.13-71.58-.52-8.46,3.38-14.71,9.3-19.94a11.18,11.18,0,0,1,6.22-2.21c4.28-.33,8.61-.1,12.73-.1,6.2,11.35,11.16,13.68,23.89,12.37,4.86,4.72,8.5,9.41,13.22,12.37,2.57,1.61,7.27,1.14,10.53.1C4707.53,419.07,4710.23,410.56,4706.48,397.3ZM4647.6,428c-7.21.23-13.26,6.61-13,13.67s6.77,13.19,13.82,13a13.48,13.48,0,0,0,12.8-13.81A13.06,13.06,0,0,0,4647.6,428Z"/><path class="cls-21" d="M4794.18,371.77c-.81,1.61-.89,2.09-1.11,2.18-10.63,4.1-11.48,12.6-10.88,22.39s.25,19.87.1,29.81c-.16,10.84-4.17,14.7-15.18,14.87q-9,.14-17.93,0c-11.51-.19-14.83-3.8-14.79-16.55,22.3-10,31-28.73,30.9-52.7Zm-21.43,36.93c2.53-3.31,4.81-5.06,5.08-7.07.19-1.41-2.05-4-3.74-4.62a3.93,3.93,0,0,0-5.4,3.87C4768.72,403,4770.72,405,4772.75,408.7Z"/><path class="cls-20" d="M4741.21,395.31c2.21,2.31,4.34,3.58,4.88,5.34.89,2.93-1.07,5.7-3.93,5.44-1.88-.17-4.29-2.72-5-4.72C4736.78,400.2,4739.3,398,4741.21,395.31Z"/><path class="cls-24" d="M4781.4,358.75H4775c-.46-.68-.81-.94-.79-1.18.26-3.24-2.11-8.55,3.15-8.6C4783.34,348.92,4780.91,354.39,4781.4,358.75Z"/><path class="cls-22" d="M4744,358.68h-7.85c0-2.6-.35-5.17.17-7.54.21-.93,2.38-1.44,3.65-2.13C4741.14,351.76,4742.28,354.52,4744,358.68Z"/><path class="cls-5" d="M2445.59,361.86c0,14.59-11.28,26-25.68,25.92a25.37,25.37,0,0,1-25.32-25.28c-.25-14.57,10.89-26.32,25.17-26.53A25.64,25.64,0,0,1,2445.59,361.86Z"/><path class="cls-25" d="M2187.11,285.25c-.07,5-4.88,9.58-9.78,9.24S2169,290.11,2169,285a9.05,9.05,0,0,1,8.55-9.25C2182.45,275.54,2187.18,280.23,2187.11,285.25Z"/><path class="cls-26" d="M4012.25,435.73a25.77,25.77,0,1,1-26-25.93C4000.27,409.62,4012.23,421.53,4012.25,435.73Z"/><path class="cls-25" d="M3744.14,349.58a9.38,9.38,0,0,1,.35,18.75c-5,.11-9.35-4.49-9.26-9.73A9.52,9.52,0,0,1,3744.14,349.58Z"/><path class="cls-11" d="M1067,386.75a16,16,0,0,1,15.81,15.92,16.22,16.22,0,0,1-16.68,16.12A15.82,15.82,0,0,1,1051,402.3,15.62,15.62,0,0,1,1067,386.75Z"/><path class="cls-27" d="M916.18,346.78c2.63,3.63,4.91,5.57,5.56,8,.9,3.24-2.65,6.48-6,6.08s-5.67-2.94-5.13-6C911,352.44,913.51,350.45,916.18,346.78Z"/><path class="cls-9" d="M108.48,395.25a15.91,15.91,0,0,1-16.34-16.14,16.37,16.37,0,0,1,15.69-16,16,16,0,0,1,16.23,16.3A15.65,15.65,0,0,1,108.48,395.25Z"/><path class="cls-25" d="M259.28,339.73c-2.86-3.76-5.22-5.6-5.78-7.87-.81-3.32,1.64-5.74,4.91-5.91s6.06,1.63,5.54,5.19C263.61,333.49,261.61,335.61,259.28,339.73Z"/><path class="cls-25" d="M2708.16,477.27c-.26,4.88-5.2,9.41-9.93,9.13s-9.28-5.27-9-10,5.16-9.36,9.94-9.09S2708.42,472.43,2708.16,477.27Z"/><path class="cls-27" d="M2791.58,449.13c-1.92,1.29-3.76,3.1-4.29,2.78-1.36-.84-2.15-2.62-3.16-4,1.27-.85,2.61-2.46,3.78-2.34S2790,447.53,2791.58,449.13Z"/><path class="cls-9" d="M4647.6,428a13.06,13.06,0,0,1,13.65,12.83,13.48,13.48,0,0,1-12.8,13.81c-7.05.22-13.52-5.86-13.82-13S4640.39,428.23,4647.6,428Z"/><path class="cls-27" d="M4772.75,408.7c-2-3.72-4-5.75-4.06-7.82a3.93,3.93,0,0,1,5.4-3.87c1.69.61,3.93,3.21,3.74,4.62C4777.56,403.64,4775.28,405.39,4772.75,408.7Z"/></g></g></svg>